PathFileType	4	(X/Y/Z)	/Users/itak/Documents/Research/Walk-IL/dataset/trc/00254_00009.trc
DataRate	CameraRate	NumFrames	NumMarkers	Units	OrigDataRate	OrigDataStartFrame	OrigNumFrames
100.000000	100.000000	4	53	mm	100.000000	137	549
Frame#	Time	RPSI			LPSI			L3			STRN			T10			C7			CLAV			RBAK			LBAK			LSHO			LUPA			LAEL			LAOL			LWTS			LWPS			LFRA			LIFD			LHPS			LHTS			RSHO			RUPA			RAEL			RAOL			RWTS			RWPS			RFRA			RIFD			RHTS			RHPS			RBHD			LFHD			RFHD			LBHD			LHIP			RHIP			RASI			LASI			LKNE			LTHI			LANK			LTIP			LTOE			LMT1			LMT5			LHEE			RKNE			RTHI			RANK			RTIP			RTOE			RMT1			RMT5			RHEE			
		X1	Y1	Z1	X2	Y2	Z2	X3	Y3	Z3	X4	Y4	Z4	X5	Y5	Z5	X6	Y6	Z6	X7	Y7	Z7	X8	Y8	Z8	X9	Y9	Z9	X10	Y10	Z10	X11	Y11	Z11	X12	Y12	Z12	X13	Y13	Z13	X14	Y14	Z14	X15	Y15	Z15	X16	Y16	Z16	X17	Y17	Z17	X18	Y18	Z18	X19	Y19	Z19	X20	Y20	Z20	X21	Y21	Z21	X22	Y22	Z22	X23	Y23	Z23	X24	Y24	Z24	X25	Y25	Z25	X26	Y26	Z26	X27	Y27	Z27	X28	Y28	Z28	X29	Y29	Z29	X30	Y30	Z30	X31	Y31	Z31	X32	Y32	Z32	X33	Y33	Z33	X34	Y34	Z34	X35	Y35	Z35	X36	Y36	Z36	X37	Y37	Z37	X38	Y38	Z38	X39	Y39	Z39	X40	Y40	Z40	X41	Y41	Z41	X42	Y42	Z42	X43	Y43	Z43	X44	Y44	Z44	X45	Y45	Z45	X46	Y46	Z46	X47	Y47	Z47	X48	Y48	Z48	X49	Y49	Z49	X50	Y50	Z50	X51	Y51	Z51	X52	Y52	Z52	X53	Y53	Z53	

138	1.37	-1549.119384765625	1054.0087890625	-375.5677795410156	-1539.108764648438	1059.868041992188	-495.7853698730469	-1542.428955078125	1136.831176757812	-455.1801147460938	-1293.05078125	1319.2353515625	-435.8301086425781	-1547.696655273438	1264.215209960938	-452.7708129882812	-1479.08984375	1523.79443359375	-452.7434387207031	-1314.288940429688	1438.33203125	-437.1490478515625	-1562.61767578125	1387.374755859375	-385.5746154785156	-1491.898559570312	1487.257202148438	-564.5303955078125	-1399.0205078125	1487.109497070312	-614.159912109375	-1428.215209960938	1369.551025390625	-694.6516723632812	-1422.085815429688	1159.815795898438	-722.6744995117188	-1497.786865234375	1146.427124023438	-681.08740234375	-1342.960205078125	922.9238891601562	-657.959716796875	-1363.520385742188	907.125732421875	-739.8115844726562	-1402.011962890625	1051.882202148438	-735.0635375976562	-1361.75146484375	731.76220703125	-663.6071166992188	-1350.889038085938	817.9013671875	-734.5153198242188	-1311.240234375	820.7442016601562	-676.3434448242188	-1438.888549804688	1489.096801757812	-277.962646484375	-1465.914428710938	1426.589965820312	-212.0078430175781	-1501.044799804688	1145.790649414062	-173.5272216796875	-1525.866333007812	1140.287231445312	-265.379638671875	-1368.330932617188	924.697509765625	-205.3458251953125	-1429.313354492188	913.3878784179688	-144.1252899169922	-1478.723388671875	1076.261474609375	-158.2533569335938	-1364.00146484375	730.093994140625	-208.43798828125	-1338.671020507812	802.7161254882812	-187.2177276611328	-1394.955932617188	804.3919677734375	-141.5535278320312	-1445.540161132812	1677.656616210938	-408.3982238769531	-1230.587646484375	1719.81591796875	-471.8016967773438	-1246.804443359375	1719.425170898438	-373.0342407226562	-1379.587768554688	1683.143798828125	-532.1985473632812	-1427.921020507812	994.3250122070312	-626.8905029296875	-1467.6953125	1011.415893554688	-261.5296325683594	-1364.310302734375	1052.121337890625	-287.08544921875	-1330.689208984375	1031.5029296875	-568.7783203125	-1387.429565429688	506.4612121582031	-580.1570434570312	-1392.096557617188	650.06884765625	-612.0518188476562	-1514.851806640625	39.03443908691406	-589.75537109375	-1455.911987304688	286.4032592773438	-596.0668334960938	-1305.621948242188	47.64709854125977	-521.2047729492188	-1374.769409179688	43.15605926513672	-481.8884582519531	-1386.845581054688	38.29025650024414	-599.825927734375	-1579.273559570312	46.63164901733398	-542.5161743164062	-1448.29833984375	515.7800903320312	-308.0367431640625	-1414.706665039062	781.6422119140625	-253.6700744628906	-1534.949584960938	40.00707244873047	-359.8648376464844	-1446.964965820312	399.6700744628906	-329.0003662109375	-1319.169921875	46.85618591308594	-366.4559020996094	-1367.233276367188	41.76172256469727	-419.3732299804688	-1430.1201171875	43.66813278198242	-317.3801574707031	-1587.389038085938	36.35247802734375	-426.6241760253906	
139	1.38	-1548.64501953125	1053.636108398438	-374.2728576660156	-1539.1064453125	1059.406616210938	-494.5377807617188	-1542.034301757812	1136.844970703125	-453.8858337402344	-1291.995971679688	1318.61865234375	-434.9921569824219	-1546.831176757812	1264.234985351562	-451.39599609375	-1477.4619140625	1523.592895507812	-451.3759765625	-1312.933227539062	1437.766357421875	-436.1272583007812	-1561.237060546875	1387.373901367188	-384.0596313476562	-1490.572998046875	1487.21240234375	-563.1610107421875	-1397.7568359375	1486.858154296875	-612.9615478515625	-1427.51123046875	1369.460083007812	-693.4642333984375	-1422.363403320312	1159.77587890625	-721.7277221679688	-1497.954711914062	1146.590454101562	-679.8796997070312	-1343.916748046875	922.6180419921875	-657.5286865234375	-1364.544555664062	906.957763671875	-739.2345581054688	-1402.6083984375	1051.797607421875	-734.266845703125	-1362.852783203125	731.6168823242188	-663.025146484375	-1352.064208984375	817.6986694335938	-733.9786376953125	-1312.661376953125	820.2642211914062	-675.8944702148438	-1437.060913085938	1488.7392578125	-276.6803283691406	-1464.099487304688	1426.341430664062	-210.6954650878906	-1499.84814453125	1145.660400390625	-172.0193481445312	-1524.87109375	1140.166137695312	-263.8154296875	-1367.581787109375	924.321533203125	-204	-1428.4736328125	913.10791015625	-142.6814117431641	-1477.647216796875	1076.076171875	-156.7679748535156	-1363.656616210938	729.7232666015625	-207.1063232421875	-1338.157592773438	802.3104248046875	-185.9335327148438	-1394.344116210938	804.068359375	-140.1598358154297	-1443.548095703125	1677.27197265625	-407.0950927734375	-1228.552978515625	1718.961303710938	-470.6045532226562	-1244.712158203125	1718.585693359375	-371.8110656738281	-1377.662719726562	1682.665771484375	-530.9111938476562	-1428.11474609375	993.7561645507812	-625.7946166992188	-1467.251220703125	1011.144165039062	-260.5044555664062	-1364.091552734375	1051.704833984375	-285.7388916015625	-1330.896118164062	1031.191772460938	-567.8125	-1381.508544921875	506.115966796875	-578.2327270507812	-1388.50146484375	649.53466796875	-610.1668090820312	-1514.648315429688	39.64178466796875	-589.4808349609375	-1452.545288085938	286.4806518554688	-594.9261474609375	-1305.405151367188	47.45646286010742	-521.2958984375	-1374.682495117188	43.13896560668945	-481.9150390625	-1386.772338867188	38.27298736572266	-599.8082275390625	-1579.031860351562	47.60492706298828	-542.34423828125	-1447.579467773438	515.601318359375	-307.3153686523438	-1413.631591796875	781.445556640625	-252.8571624755859	-1535.033203125	39.8712043762207	-359.7145080566406	-1446.7451171875	399.3927307128906	-328.2303161621094	-1319.20751953125	46.87766265869141	-366.5023498535156	-1367.256225585938	41.78184127807617	-419.3778381347656	-1430.069091796875	43.60341262817383	-317.3805236816406	-1587.509399414062	36.27925491333008	-426.4324645996094	
140	1.39	-1548.170043945312	1053.238037109375	-372.9703063964844	-1539.155395507812	1058.856079101562	-493.2822875976562	-1541.652465820312	1136.81298828125	-452.5940246582031	-1290.876953125	1317.95751953125	-434.214111328125	-1545.937133789062	1264.211181640625	-450.0310974121094	-1475.797607421875	1523.339965820312	-450.0010681152344	-1311.554931640625	1437.108032226562	-435.1538391113281	-1559.81494140625	1387.311645507812	-382.5498657226562	-1489.227783203125	1487.140502929688	-561.7984008789062	-1396.476440429688	1486.557250976562	-611.7861328125	-1426.811401367188	1369.321411132812	-692.2957153320312	-1422.650390625	1159.681030273438	-720.7847900390625	-1498.130859375	1146.705322265625	-678.6803588867188	-1344.805908203125	922.3058471679688	-657.05078125	-1365.573364257812	906.72509765625	-738.6109619140625	-1403.2001953125	1051.655517578125	-733.44873046875	-1364.087280273438	731.4188842773438	-662.4020385742188	-1353.22998046875	817.4398803710938	-733.3744506835938	-1313.857543945312	819.842529296875	-675.4469604492188	-1435.164306640625	1488.284545898438	-275.4110107421875	-1462.21142578125	1425.998413085938	-209.3979644775391	-1498.597045898438	1145.449462890625	-170.4801330566406	-1523.841674804688	1139.95654296875	-262.2122497558594	-1366.805053710938	923.8692626953125	-202.6532592773438	-1427.566772460938	912.7491455078125	-141.2153778076172	-1476.503662109375	1075.806884765625	-155.2463226318359	-1363.224487304688	729.250732421875	-205.7642211914062	-1337.56005859375	801.8413696289062	-184.6472625732422	-1393.645751953125	803.6710815429688	-138.75146484375	-1441.497314453125	1676.82470703125	-405.7751159667969	-1226.450805664062	1718.0380859375	-469.3985595703125	-1242.552001953125	1717.676147460938	-370.5756530761719	-1375.677368164062	1682.135864257812	-529.615966796875	-1428.411865234375	993.055419921875	-624.7111206054688	-1466.743408203125	1010.867431640625	-259.4969177246094	-1363.880737304688	1051.256591796875	-284.3573303222656	-1331.1884765625	1030.771850585938	-566.9326782226562	-1374.961791992188	505.7765808105469	-576.2492065429688	-1384.470703125	648.959228515625	-608.1537475585938	-1514.405151367188	40.52658081054688	-589.1359252929688	-1448.818237304688	286.7181396484375	-593.7440185546875	-1305.12353515625	47.24286270141602	-521.42041015625	-1374.544189453125	43.13977813720703	-481.9540100097656	-1386.674194335938	38.28097534179688	-599.7566528320312	-1578.707153320312	49.01552581787109	-542.0802001953125	-1447.11083984375	515.4251708984375	-306.4673767089844	-1412.559448242188	781.2420043945312	-252.0526885986328	-1535.144775390625	39.72882080078125	-359.5562744140625	-1446.708740234375	399.1207275390625	-327.4375	-1319.245483398438	46.90349960327148	-366.5382385253906	-1367.287109375	41.81399536132812	-419.3715515136719	-1430.056030273438	43.50301742553711	-317.3429565429688	-1587.62158203125	36.17467498779297	-426.2212829589844	
141	1.4	-1547.674560546875	1052.821411132812	-371.6511840820312	-1539.23828125	1058.223876953125	-492.0126037597656	-1541.275146484375	1136.740844726562	-451.3017272949219	-1289.669189453125	1317.246704101562	-433.5040283203125	-1545.01025390625	1264.152465820312	-448.681396484375	-1474.097045898438	1523.046875	-448.628662109375	-1310.14990234375	1436.358520507812	-434.239501953125	-1558.351440429688	1387.193481445312	-381.0571899414062	-1487.863403320312	1487.048828125	-560.4493408203125	-1395.180053710938	1486.21484375	-610.64453125	-1426.122192382812	1369.13818359375	-691.1549072265625	-1422.939819335938	1159.530151367188	-719.8499145507812	-1498.306762695312	1146.773559570312	-677.490478515625	-1345.64453125	921.977294921875	-656.52099609375	-1366.595092773438	906.42822265625	-737.9369506835938	-1403.792358398438	1051.45654296875	-732.612060546875	-1365.429565429688	731.1663818359375	-661.7344360351562	-1354.389526367188	817.124755859375	-732.705810546875	-1314.916259765625	819.4317016601562	-674.9947509765625	-1433.19775390625	1487.733520507812	-274.1636962890625	-1460.244750976562	1425.557861328125	-208.1249237060547	-1497.27685546875	1145.153564453125	-168.9176483154297	-1522.76513671875	1139.653076171875	-260.5794067382812	-1366.015502929688	923.3295288085938	-201.3184814453125	-1426.600219726562	912.306640625	-139.7346496582031	-1475.284057617188	1075.450439453125	-153.6975860595703	-1362.706298828125	728.6699829101562	-204.4052276611328	-1336.884155273438	801.2863159179688	-183.358154296875	-1392.862182617188	803.1941528320312	-137.3258514404297	-1439.380004882812	1676.321166992188	-404.4397583007812	-1224.281860351562	1717.055419921875	-468.18603515625	-1240.318481445312	1716.701782226562	-369.3317260742188	-1373.630249023438	1681.566772460938	-528.3157958984375	-1428.79443359375	992.2427368164062	-623.6386108398438	-1466.1025390625	1010.590026855469	-258.4705810546875	-1363.659057617188	1050.784423828125	-282.9359436035156	-1331.5546875	1030.247924804688	-566.1473388671875	-1367.83544921875	505.490234375	-574.2477416992188	-1380.009887695312	648.396240234375	-606.0408935546875	-1514.116455078125	41.75688171386719	-588.7247924804688	-1444.743896484375	287.171875	-592.5237426757812	-1304.782104492188	47.01943969726562	-521.5838623046875	-1374.328857421875	43.18100738525391	-482.0101318359375	-1386.54638671875	38.33347320556641	-599.6554565429688	-1578.284301757812	50.92605209350586	-541.7069091796875	-1446.908569335938	515.2568359375	-305.5276794433594	-1411.500610351562	781.021728515625	-251.2563171386719	-1535.283569335938	39.58276748657227	-359.3884582519531	-1446.867919921875	398.8720092773438	-326.6285095214844	-1319.28662109375	46.93707656860352	-366.5640869140625	-1367.332153320312	41.86176681518555	-419.352783203125	-1430.080444335938	43.37276458740234	-317.2698974609375	-1587.7236328125	36.03973388671875	-425.9964599609375	
